<svg id="Capa_1" enable-background="new 0 0 512 512" height="512" viewBox="0 0 512 512" width="512" xmlns="http://www.w3.org/2000/svg"><g><path d="m436.072 328.535v156.25h-436.072v-156.25l23-16.82h391.5z" fill="#92ca32"/><path d="m436.072 328.535v156.25h-218.022v-173.07h196.45z" fill="#67b821"/><path d="m436.072 182.245v73.8l-22.572 20.34h-390.5l-23-20.34v-73.8z" fill="#92ca32"/><path d="m436.072 182.245v73.8l-22.572 20.34h-195.45v-94.14z" fill="#67b821"/><path d="m0 256.045h436.072v72.49h-436.072z" fill="#f3f6ff"/><path d="m218.05 256.045h218.022v72.49h-218.022z" fill="#cddbf9"/><path d="m270.103 406.33h40.958v30h-40.958z" fill="#2a386b"/><path d="m343.061 406.33h40.958v30h-40.958z" fill="#2a386b"/><path d="m484.012 90.155v33.79h-30v-33.79c0-18.16-14.78-32.94-32.94-32.94-18.17 0-32.94 14.78-32.94 32.94v33.79h-30v-33.79c0-34.7 28.23-62.94 62.94-62.94s62.94 28.24 62.94 62.94z" fill="#cddbf9"/><path d="m484.012 90.155v33.79h-30v-33.79c0-18.16-14.78-32.94-32.94-32.94v-30c34.71 0 62.94 28.24 62.94 62.94z" fill="#afc2e8"/><path d="m330.13 108.945v167.44h75.94l15-10.75 15 10.75h75.93v-167.44z" fill="#fea000"/><path d="m512 108.945v167.44h-75.93l-15-10.75v-156.69z" fill="#f78002"/><path d="m406.072 177.665h30v98.72h-30z" fill="#fbe200"/><path d="m421.072 177.665h15v98.72h-15z" fill="#febf01"/></g></svg>