<svg id="Layer_1" enable-background="new 0 0 512 512" height="512" viewBox="0 0 512 512" width="512" xmlns="http://www.w3.org/2000/svg"><g><g><g><path d="m512 283.775v99.98c0 15.49-12.56 28.06-28.06 28.06h-136.13l-1.5-30.1-13.5-270.62h79.77c15.5 0 28.06 12.57 28.06 28.06v116.3h43.05c15.63 0 28.31 12.68 28.31 28.32z" fill="#eef0f5"/><path d="m512 283.775v99.98c0 15.49-12.56 28.06-28.06 28.06h-136.13l-1.5-30.1c8.38-.69 16.15-4.91 21.1-11.79 13.04-18.14 34.33-29.95 58.37-29.95 9.96 0 19.45 2.03 28.07 5.69 13.36 5.68 28.15-4.4 28.15-18.91v-42.98c0-15.64-12.68-28.32-28.31-28.32h30c15.63 0 28.31 12.68 28.31 28.32z" fill="#dae1ea"/><path d="m382.58 111.095h30c15.5 0 28.06 12.57 28.06 28.06v116.3h-30v-116.3c0-15.49-12.56-28.06-28.06-28.06z" fill="#dae1ea"/><path d="m347.81 83.215v273.71l-30-2.59-317.81-27.41v-243.71c0-15.03 12.18-27.21 27.21-27.21h293.39c15.03 0 27.21 12.18 27.21 27.21z" fill="#a4ce39"/><path d="m347.81 83.215v273.71l-30-2.59v-271.12c0-15.03-12.18-27.21-27.21-27.21h30c15.03 0 27.21 12.18 27.21 27.21z" fill="#68c044"/><path d="m347.81 326.925v84.89h-320.6c-15.03 0-27.21-12.18-27.21-27.21v-57.68z" fill="#b9cfdf"/><g><path d="m347.81 326.925v84.89h-320.6c-15.028 0-27.21-12.182-27.21-27.21v-30c0 .856.04 1.704.117 2.54 1.486 16.067 21.943 21.68 32.164 9.195 13.174-16.093 33.196-26.365 55.619-26.365 25.603 0 48.074 13.387 60.8 33.549 3.282 5.199 9.057 8.291 15.205 8.291h133.142c11.467 0 20.763-9.296 20.763-20.763v-34.127z" fill="#90abbd"/></g><path d="m440.64 140.905v114.55h-54.64c-2.96 0-5.36-2.4-5.36-5.36v-103.83c0-2.96 2.4-5.36 5.36-5.36z" fill="#00c2f3"/><path d="m512 294.435v30h-38.61c-8.28 0-15-6.71-15-15 0-4.14 1.68-7.89 4.4-10.61 2.71-2.71 6.46-4.39 10.6-4.39z" fill="#fbdf63"/><path d="m405.48 294.437h-17.34c-4.143 0-7.5 3.358-7.5 7.5s3.357 7.5 7.5 7.5h17.34c4.143 0 7.5-3.358 7.5-7.5s-3.358-7.5-7.5-7.5z" fill="#b9cfdf"/><path d="m410.64 140.905h30v114.55h-30z" fill="#1e90ff"/><path d="m482 294.435h30v30h-30z" fill="#f9d11f"/><g><path d="m425.78 367.638c-24.359 0-44.178 19.818-44.178 44.178s19.818 44.178 44.178 44.178 44.179-19.818 44.179-44.178-19.819-44.178-44.179-44.178z" fill="#56788b"/><path d="m132.08 411.815c0 24.36-19.82 44.18-44.18 44.18-5.26 0-10.31-.93-15-2.63-17-6.14-29.18-22.45-29.18-41.55s12.18-35.41 29.18-41.55c4.69-1.7 9.74-2.63 15-2.63 24.36 0 44.18 19.82 44.18 44.18z" fill="#56788b"/><g fill="#415e6f"><path d="m132.08 411.815c0 24.36-19.82 44.18-44.18 44.18-5.26 0-10.31-.93-15-2.63 17-6.14 29.18-22.45 29.18-41.55s-12.18-35.41-29.18-41.55c4.69-1.7 9.74-2.63 15-2.63 24.36 0 44.18 19.82 44.18 44.18z"/><path d="m469.958 411.815c0 24.36-19.82 44.18-44.18 44.18-5.26 0-10.31-.93-15-2.63 17-6.14 29.18-22.45 29.18-41.55s-12.18-35.41-29.18-41.55c4.69-1.7 9.74-2.63 15-2.63 24.36 0 44.18 19.82 44.18 44.18z"/></g></g></g></g><g fill="#fff"><path d="m217.896 183.973c4.142 0 7.5-3.357 7.5-7.5s-3.358-7.5-7.5-7.5h-29.982c-4.142 0-7.5 3.357-7.5 7.5v59.983c0 4.143 3.358 7.5 7.5 7.5h29.982c4.142 0 7.5-3.357 7.5-7.5s-3.358-7.5-7.5-7.5h-22.482v-14.991h22.482c4.142 0 7.5-3.357 7.5-7.5s-3.358-7.5-7.5-7.5h-22.482v-14.992z"/><path d="m276.878 183.973c4.142 0 7.5-3.357 7.5-7.5s-3.358-7.5-7.5-7.5h-29.982c-4.142 0-7.5 3.357-7.5 7.5v59.983c0 4.143 3.358 7.5 7.5 7.5h29.982c4.142 0 7.5-3.357 7.5-7.5s-3.358-7.5-7.5-7.5h-22.482v-14.991h22.482c4.142 0 7.5-3.357 7.5-7.5s-3.358-7.5-7.5-7.5h-22.482v-14.992z"/><path d="m100.914 183.973c4.142 0 7.5-3.357 7.5-7.5s-3.358-7.5-7.5-7.5h-29.982c-4.142 0-7.5 3.357-7.5 7.5v59.983c0 4.143 3.358 7.5 7.5 7.5s7.5-3.357 7.5-7.5v-22.491h22.482c4.142 0 7.5-3.357 7.5-7.5s-3.358-7.5-7.5-7.5h-22.482v-14.992z"/></g><g><path d="m165.154 232.295-12.224-18.33h5.984c4.142 0 7.5-3.357 7.5-7.5v-29.992c0-4.143-3.358-7.5-7.5-7.5h-29.982c-4.142 0-7.5 3.357-7.5 7.5v59.983c0 4.143 3.358 7.5 7.5 7.5s7.5-3.357 7.5-7.5v-20.195l16.242 24.356c1.445 2.168 3.823 3.34 6.247 3.34 1.43 0 2.875-.408 4.154-1.261 3.446-2.298 4.377-6.955 2.079-10.401zm-13.74-33.33h-14.982v-14.992h14.982z" fill="#fff"/></g></g></svg>