<svg height="512" viewBox="0 0 512 512" width="512" xmlns="http://www.w3.org/2000/svg"><g id="Flat"><rect fill="#43a047" height="464" rx="96" width="464" x="24" y="24"/><path d="m459.882 52.118-11.34 11.34a79.751 79.751 0 0 1 23.458 56.542v272a80.091 80.091 0 0 1 -80 80h-272a79.751 79.751 0 0 1 -56.542-23.458l-11.34 11.34a95.7 95.7 0 0 0 67.882 28.118h272a96 96 0 0 0 96-96v-272a95.7 95.7 0 0 0 -28.118-67.882z" fill="#388e3c"/><path d="m40 392v-272a80.091 80.091 0 0 1 80-80h272a79.751 79.751 0 0 1 56.542 23.458l11.34-11.34a95.7 95.7 0 0 0 -67.882-28.118h-272a96 96 0 0 0 -96 96v272a95.7 95.7 0 0 0 28.118 67.882l11.34-11.34a79.751 79.751 0 0 1 -23.458-56.542z" fill="#66bb6a"/><path d="m256 96a112.127 112.127 0 0 0 -112 112v180.687l-34.343-34.344-11.314 11.314 48 48a8 8 0 0 0 11.314 0l48-48-11.314-11.314-34.343 34.344v-180.687a96 96 0 0 1 192 0v208h16v-208a112.127 112.127 0 0 0 -112-112z" fill="#f1f1f1"/></g></svg>